<?xml version="1.0" encoding="utf-8"?>
<!-- Svg Vector Icons : http://www.onlinewebfonts.com/icon -->
<!DOCTYPE svg PUBLIC "-//W3C//DTD SVG 1.1//EN" "http://www.w3.org/Graphics/SVG/1.1/DTD/svg11.dtd">
<svg version="1.1" xmlns="http://www.w3.org/2000/svg" xmlns:xlink="http://www.w3.org/1999/xlink" x="0px" y="0px" viewBox="0 0 1000 1000" enable-background="new 0 0 1000 1000" xml:space="preserve">
<metadata> Svg Vector Icons : http://www.onlinewebfonts.com/icon </metadata>
<g><path d="M523.4,500l462-470.8c6.2-6.3,6.1-16.5-0.2-22.7c-6.3-6.2-16.5-6.1-22.7,0.2L500,477.9L37.5,6.7c-6.2-6.3-16.4-6.4-22.7-0.2c-6.3,6.2-6.4,16.4-0.2,22.7l462,470.8L15.5,970.8c-6.2,6.3-6.1,16.5,0.2,22.7c3.1,3.1,7.2,4.6,11.2,4.6c4.2,0,8.3-1.6,11.5-4.8L500,522.1l461.6,471.2c3.1,3.2,7.3,4.8,11.5,4.8c4.1,0,8.1-1.5,11.2-4.6c6.3-6.2,6.4-16.4,0.2-22.7L523.4,500z"/></g>
</svg>
